<svg viewBox="0 0 237 55" xmlns="http://www.w3.org/2000/svg">
  <g fill="#fff">
    <path d="M62.905 37.47h.562v2.824h2.872v-2.823h.562v6.323h-.562v-2.853h-2.872v2.853h-.562zm8.492 3.677v-3.676h.562v3.617c0 1.353.562 2.118 1.53 2.118.936 0 1.498-.706 1.498-2.088V37.44h.562v3.618c0 1.853-.843 2.794-2.092 2.794-1.217.03-2.06-.941-2.06-2.706zm8.616-3.677h.562l1.81 3.442 1.812-3.441h.561v6.323h-.561v-5.118l-1.78 3.383h-.031l-1.81-3.383v5.118h-.563v-6.323zm11.177-.058h.53L94 43.765h-.594l-.593-1.677h-2.716l-.593 1.677h-.562l2.247-6.353zm1.404 4.059l-1.124-3.236-1.155 3.236h2.28zm5.526-4.001h.53l3.154 5.06v-5.06h.562v6.324h-.437l-3.216-5.176v5.176h-.562v-6.323zm14.048 0h.562l1.811 3.442 1.81-3.441h.563v6.323h-.562v-5.118l-1.78 3.383h-.031l-1.81-3.383v5.118h-.563v-6.323zm9.116 3.177c0-1.765 1.03-3.294 2.56-3.294s2.529 1.5 2.529 3.265v.03c0 1.734-1.03 3.264-2.56 3.264-1.499-.03-2.529-1.53-2.529-3.265zm4.496 0c0-1.441-.843-2.618-1.967-2.618s-1.967 1.147-1.967 2.589v.03c0 1.44.812 2.617 1.967 2.617 1.155-.03 1.967-1.177 1.967-2.618zm4.214-3.177h.625l1.779 5.442 1.78-5.441h.593l-2.154 6.353h-.5zm8.897 0h3.622v.648h-3.06v2.147h2.716v.647h-2.716v2.206h3.091v.647h-3.653zm7.93 0h.562l1.81 3.442 1.811-3.441h.562v6.323h-.562v-5.118l-1.78 3.383h-.03l-1.811-3.383v5.118h-.562v-6.323zm9.334 0h3.622v.648h-3.06v2.147h2.716v.647h-2.716v2.206h3.09v.647h-3.652zm7.899 0h.53l3.153 5.06v-5.06h.562v6.324h-.437l-3.215-5.176v5.176h-.562v-6.323zm10.114.648h-1.685v-.647h3.933v.647h-1.686v5.647h-.562v-5.647zm11.364 4.735l.343-.53c.531.589 1.03.883 1.717.883.656 0 1.124-.441 1.124-1.088v-.03c0-.588-.25-.912-1.31-1.206-1.156-.323-1.687-.794-1.687-1.823v-.03c0-1 .687-1.735 1.655-1.735.718 0 1.249.265 1.748.765l-.312.559c-.468-.47-.937-.677-1.436-.677-.656 0-1.061.441-1.061 1.03V39c0 .588.25.941 1.342 1.235 1.124.294 1.623.824 1.623 1.794v.03c0 1.088-.718 1.794-1.717 1.794-.78.03-1.405-.324-2.029-1zm7.836-2.206c0-1.794 1.061-3.294 2.529-3.294.905 0 1.436.412 1.935 1l-.374.53c-.406-.5-.906-.854-1.561-.854-1.093 0-1.936 1.147-1.936 2.589v.03c0 1.47.843 2.617 1.936 2.617.686 0 1.123-.324 1.623-.912l.375.47c-.531.677-1.093 1.118-1.998 1.118-1.468-.059-2.53-1.5-2.53-3.294zm8.647-3.177h.562v6.324h-.562zm5.183 0h3.621v.648h-3.06v2.147h2.717v.647h-2.716v2.206h3.09v.647h-3.652zm7.898 0h.53l3.154 5.06v-5.06h.562v6.324h-.437l-3.216-5.176v5.176h-.593zm8.554 3.177c0-1.794 1.061-3.294 2.529-3.294.905 0 1.436.412 1.935 1l-.374.53c-.406-.5-.906-.854-1.561-.854-1.093 0-1.936 1.147-1.936 2.589v.03c0 1.47.843 2.617 1.936 2.617.686 0 1.124-.324 1.623-.912l.375.47c-.531.677-1.093 1.118-1.998 1.118-1.436-.059-2.53-1.5-2.53-3.294zm8.647-3.177h3.622v.648h-3.06v2.147h2.716v.647h-2.716v2.206h3.091v.647h-3.653zM62.78 8.941h3.684c.812 0 1.499.147 2.06.47a4.339 4.339 0 0 1 1.406 1.265c.374.53.624 1.118.78 1.795a9.39 9.39 0 0 1 .25 2.117v.824c0 .617-.031 1.117-.125 1.53a3.493 3.493 0 0 1-.343 1.087 4.327 4.327 0 0 1-.531.824c-.219.235-.468.47-.75.676.594.353 1.03.883 1.312 1.589.28.706.437 1.647.437 2.823v1.265c0 1.97-.375 3.47-1.124 4.53-.75 1.058-1.967 1.558-3.621 1.558H62.78V8.941zm2.53 9.177h1.154c.843 0 1.405-.265 1.686-.794.281-.53.437-1.324.437-2.353 0-1-.156-1.765-.468-2.265-.312-.5-.905-.765-1.748-.765h-1.03v6.177h-.032zm0 10h1.092c.5 0 .905-.089 1.217-.294.281-.177.5-.442.656-.795.156-.323.25-.735.281-1.205.031-.471.062-.971.062-1.5 0-.56-.03-1.06-.062-1.471-.062-.412-.156-.765-.312-1.059a1.506 1.506 0 0 0-.656-.647c-.28-.147-.655-.206-1.124-.206H65.34v7.177h-.03zm8.054-19.177h4.058c2.966 0 4.464 2.177 4.464 6.559 0 1.294-.156 2.412-.468 3.353a4.272 4.272 0 0 1-1.686 2.235l2.716 10.206h-2.685l-2.372-9.53h-1.499v9.56h-2.528V8.94zm2.528 10h1.436c.437 0 .812-.088 1.062-.235s.468-.382.593-.677c.125-.294.25-.647.281-1.088.062-.441.062-.912.062-1.5 0-.559-.03-1.059-.062-1.5-.062-.441-.156-.794-.312-1.088a1.576 1.576 0 0 0-.656-.677c-.28-.147-.655-.205-1.124-.205h-1.31v6.97h.03zm7.868-4.706c0-.911.124-1.706.374-2.382.25-.677.562-1.265.968-1.706a4.485 4.485 0 0 1 1.373-1.03 3.52 3.52 0 0 1 1.53-.352c.5 0 1.03.117 1.53.353.5.235.968.558 1.374 1.03.405.44.718 1.028.967 1.705.25.676.375 1.5.375 2.382V26.03c0 .912-.125 1.736-.375 2.412-.25.677-.562 1.235-.967 1.706a4.485 4.485 0 0 1-1.374 1.03 3.52 3.52 0 0 1-1.53.352c-.5 0-1.03-.117-1.53-.353a4.06 4.06 0 0 1-1.373-1.029c-.406-.441-.718-1.03-.968-1.706-.25-.676-.375-1.47-.375-2.412V14.235zm2.528 11.794c0 .765.156 1.353.5 1.706.343.353.749.56 1.217.56.468 0 .874-.177 1.218-.56.343-.353.5-.94.5-1.706V14.235c0-.764-.157-1.353-.5-1.706-.344-.353-.75-.558-1.218-.558-.468 0-.874.176-1.217.558-.344.353-.5.942-.5 1.706V26.03zm8.055-11.794c0-.911.124-1.706.374-2.382.25-.677.562-1.265.968-1.706a4.485 4.485 0 0 1 1.374-1.03 3.52 3.52 0 0 1 1.53-.352c.499 0 1.03.117 1.529.353.5.235.968.558 1.374 1.03.405.44.718 1.028.967 1.705.25.676.375 1.5.375 2.382V26.03c0 .912-.125 1.736-.375 2.412-.25.677-.562 1.235-.967 1.706a4.485 4.485 0 0 1-1.374 1.03 3.52 3.52 0 0 1-1.53.352c-.5 0-1.03-.117-1.53-.353a4.06 4.06 0 0 1-1.373-1.029c-.406-.441-.718-1.03-.968-1.706-.25-.676-.374-1.47-.374-2.412V14.235zM96.87 26.03c0 .765.156 1.353.5 1.706.343.353.749.56 1.217.56.469 0 .874-.177 1.218-.56.343-.353.5-.94.5-1.706V14.235c0-.764-.157-1.353-.5-1.706-.344-.353-.75-.558-1.218-.558-.468 0-.874.176-1.217.558-.344.353-.5.942-.5 1.706V26.03zm8.18-17.089h2.53v10.206h.062l3.683-10.206h2.53l-3.435 8.941 4.09 13.412h-2.685l-2.872-9.912-1.374 3.236v6.676h-2.528zm10.552 0h3.684c.812 0 1.499.147 2.06.47.563.324 1.03.736 1.405 1.265.375.53.625 1.118.78 1.795a9.39 9.39 0 0 1 .25 2.117v.824c0 .617-.03 1.117-.124 1.53a3.493 3.493 0 0 1-.344 1.087 4.327 4.327 0 0 1-.53.824 5.4 5.4 0 0 1-.75.676c.594.353 1.03.883 1.312 1.589.28.706.437 1.647.437 2.823v1.265c0 1.97-.375 3.47-1.124 4.53-.75 1.058-1.967 1.558-3.622 1.558h-3.434V8.941zm2.53 9.177h1.154c.843 0 1.405-.265 1.686-.794.281-.53.437-1.324.437-2.353 0-1-.156-1.765-.468-2.265-.312-.5-.906-.765-1.748-.765h-1.03v6.177h-.032zm0 10h1.092c.5 0 .905-.089 1.217-.294.281-.177.5-.442.656-.795.156-.323.25-.735.28-1.205.032-.471.063-.971.063-1.5 0-.56-.03-1.06-.062-1.471-.063-.412-.156-.765-.312-1.059a1.506 1.506 0 0 0-.656-.647c-.28-.147-.656-.206-1.124-.206h-1.124v7.177h-.03zm16.233-1.824c0 .735-.094 1.412-.312 2.03-.219.617-.5 1.176-.875 1.647-.374.47-.811.853-1.31 1.117-.5.265-1.03.412-1.593.412a3.366 3.366 0 0 1-1.592-.412 4.206 4.206 0 0 1-1.311-1.117c-.375-.471-.656-1.03-.874-1.647-.219-.618-.312-1.295-.312-2.03V8.941h2.528v17.03c0 .794.156 1.382.437 1.764.312.383.656.56 1.124.56.437 0 .812-.177 1.124-.56.312-.382.437-.97.437-1.764V8.94h2.529v17.353zm10.583-10.912h-2.529v-.735c0-.735-.125-1.353-.406-1.912-.28-.53-.718-.794-1.373-.794-.344 0-.625.088-.843.265a1.843 1.843 0 0 0-.53.647 2.637 2.637 0 0 0-.25.912c-.032.353-.063.706-.063 1.088 0 .441 0 .823.031 1.118.031.294.094.558.187.794.094.206.25.411.438.588.187.176.437.323.78.5l1.936.97c.561.265 1.03.589 1.373.971.344.353.625.794.812 1.294.187.5.312 1.06.374 1.706.063.647.094 1.353.094 2.177 0 .94-.062 1.823-.218 2.617-.157.794-.406 1.5-.718 2.06A3.608 3.608 0 0 1 142.7 31c-.562.324-1.249.5-2.06.5a3.773 3.773 0 0 1-1.717-.412 4.097 4.097 0 0 1-1.374-1.117 5.506 5.506 0 0 1-.905-1.677 6.58 6.58 0 0 1-.344-2.118V25h2.529v1c0 .588.125 1.118.406 1.588.28.47.718.706 1.374.706.437 0 .78-.088.998-.235a1.23 1.23 0 0 0 .531-.647c.125-.294.188-.647.25-1.06.031-.41.062-.881.062-1.381 0-.589-.03-1.06-.062-1.442-.031-.382-.094-.676-.219-.911a1.333 1.333 0 0 0-.437-.56 6.227 6.227 0 0 0-.749-.47l-1.81-.94c-1.093-.56-1.811-1.324-2.186-2.236-.374-.941-.562-2.088-.562-3.5 0-.824.094-1.647.281-2.383.187-.764.437-1.411.812-1.94.343-.53.812-.971 1.342-1.295.531-.323 1.187-.5 1.905-.5.624 0 1.217.147 1.717.441.53.294.967.677 1.342 1.147.375.47.656 1.03.843 1.618.187.588.312 1.206.312 1.824v1.558h-.031zm1.873-6.441h2.529v9.588h3.122V8.941H155v22.353h-2.528v-9.941h-3.122v9.941h-2.529zm15.266 0h2.529v22.353h-2.53zm4.87 0h2.435l3.809 13.47h.062V8.942h2.529v22.353h-2.373l-3.87-13.441h-.063v13.441h-2.529zm19.293 6.441h-2.529v-.735c0-.735-.125-1.353-.405-1.912-.281-.53-.718-.794-1.374-.794-.343 0-.624.088-.843.265a1.843 1.843 0 0 0-.53.647 2.637 2.637 0 0 0-.25.912c-.063.353-.063.706-.063 1.088 0 .441 0 .823.031 1.118.032.294.094.558.188.794.093.206.25.411.437.588.187.176.437.323.78.5l1.936.97c.562.265 1.03.589 1.373.971.344.353.625.794.812 1.294.187.5.312 1.06.375 1.706.062.647.093 1.353.093 2.177 0 .94-.062 1.823-.218 2.617s-.406 1.5-.718 2.06A3.608 3.608 0 0 1 184.002 31c-.562.324-1.248.5-2.06.5a3.773 3.773 0 0 1-1.717-.412 4.097 4.097 0 0 1-1.374-1.117 5.506 5.506 0 0 1-.905-1.677 6.58 6.58 0 0 1-.343-2.118V25h2.528v1c0 .588.125 1.118.406 1.588s.718.706 1.374.706c.437 0 .749-.088.999-.235s.437-.383.53-.647c.125-.294.188-.647.25-1.06.031-.41.063-.881.063-1.381 0-.589-.032-1.06-.063-1.442-.031-.382-.094-.676-.218-.911a1.333 1.333 0 0 0-.437-.56 6.228 6.228 0 0 0-.75-.47l-1.81-.94c-1.093-.56-1.811-1.324-2.186-2.236-.374-.941-.562-2.088-.562-3.5 0-.824.094-1.647.281-2.383.188-.764.437-1.411.812-1.94.343-.53.812-.971 1.342-1.295.531-.323 1.187-.5 1.905-.5.624 0 1.217.147 1.717.441.53.294.968.677 1.342 1.147.375.47.656 1.03.843 1.618.187.588.312 1.206.312 1.824v1.558h-.03zm3.559-3.412h-2.935V8.942h8.398v3h-2.934v19.353h-2.529zm6.65-3.029h2.528v22.353h-2.528zm6.649 3.029h-2.934V8.942h8.366v3h-2.934v19.353h-2.53V11.971zm14.735 14.324c0 .735-.093 1.412-.312 2.03-.218.617-.5 1.176-.874 1.647-.375.47-.812.853-1.311 1.117-.5.265-1.03.412-1.592.412a3.366 3.366 0 0 1-1.592-.412 4.206 4.206 0 0 1-1.312-1.117c-.374-.471-.655-1.03-.874-1.647-.218-.618-.312-1.295-.312-2.03V8.941h2.529v17.03c0 .794.156 1.382.437 1.764.312.383.655.56 1.124.56.437 0 .811-.177 1.124-.56.312-.382.437-.97.437-1.764V8.94h2.528v17.353zm4.059-14.324h-2.935V8.942h8.398v3h-2.935v19.353h-2.528zm6.556-3.029h7.555v3h-4.995v6.588h4.37v3h-4.37v6.56h4.995v3.205h-7.555zM35.12 15.235s1 .383 1.468 1.677c0 0-1.81-2-3.777-1.883 0 0 1.592-.176 1.373-1.176-.28-1.324-1.186-.882-1.186-.882s-.375-2.206-.593-2.118c-.219.088-.468.588-.468.588s0-1.617-1.062-1.706c-1.061-.088-4.277-.94-8.554-.676 0 0 3.497-.883 8.585.323 0 0 .875.06 1.03.089.157.058.75 1.558 1.218 1.794.468.235.5 1.088.5 1.088s2.185 1.176 1.467 2.882zM12.863 7.324c.125.088.25.235.25.235s-.281-.47-.562-.735-.562-.677-.656-.765c0 0 0-.03-.03-.03-.063 0-.095.03-.157.03.125.176.218.323.312.441.187.206.718.706.843.824zm-1.217-.089c.312.236.842.647.842.647s-.593-.794-.78-.911c-.156-.118-.468-.589-.593-.736-.063.03-.125.03-.187.06 0 0 0 .029.03.029.313.411.375.676.688.911zM33.435 24h-5.557c-4.901 0-7.773 2.353-7.773 2.353s2.404-1.324 5.744-1.735c1.873-.236 5.213-.177 5.213-.177-.187.147-.655.324-.655.324.874-.03 1.873-.294 1.873-.294 0 .147-.312.44-.312.44 1.249-.264 1.467-.911 1.467-.911zM53.51 8.47S36.369 5.589 27.254 0c-3.746 2.294-8.835 4.118-13.518 5.5.187.382.156.412.344.559.187.147.562.853.562.853s.905.03 1.748.853c.718.706.905.911 1.498 1.03.031 0 .063 0 .094.029.218.029.874.029 2.903-.118 3.028-.206 5.495-.882 7.399-.324.406.118.78.206 1.093.294L31.5 9h.187c.718 0 1.592.941 2.092 1.912.062.147 2.091 2.206 2.497 2.94 0 0 .656 1 .624 2.677l.032.03c.468-.118.967-.383 1.342-.647 0 0 .437-.353 1.717-.353 0 0-.437-.235-1.186-.206.53-.824 1.405-2.382 3.808-2.912 2.467-.53 4.402.5 5.214 1.441.812.912 1.124 4.589 0 5.56-1.124.94-1.655 1.734-1.873 1.823-.219.088-1.187 0-1.187 0s-.405 1.53-.593 1.559c-.218.029-.5-.236-.905-.589l-.437.353s-.812-.706-1.311-1l.655 1-.437.06-.343-.148-.25.03c-.218 1.911-.406 2.764-.406 2.764s1.062 1.412.906 2.677c0 0-1.811-.177-2.779 1.029 0 0 2.56-1.176 5.151-.53 2.56.677 5.682.206 6.306.148.625-.06 1.28-.442 1.593-.912.28-.441 1.155-1.441 1.717-1.5.093 0 .187-.03.25-.03.811-5 .811-10.852-.375-17.705zM39.585 19.854c1.03 1.735.156 4.706.156 4.706l-.999-.206c1.81.882 2.31 3.441 2.31 3.441.219-1.735-.905-3-.905-3 1.093-3.265-.562-4.941-.562-4.941zm9.865 9.176s-2.59.265-3.309.265c-.718 0-3.122-.5-3.122-.5.937.5 2.31.706 2.31.706l-.374.206c2.091-.059 4.495-.677 4.495-.677zM38.024 17.941c.812.265 2.966 1.177 3.185 3.088.218-1.147-.594-2.058-.875-2.353.125-.44.063-.352.063-.352s-.25-.265-.437-.589c-.188-.323-.188-.53-.063-.794.125-.265.75-.882 1.124-.941.375-.059.75.441.75.824 0 0 .156-.648-.188-.942-.343-.294-.874-.058-.874-.058s-1.374.852-1.28 1.5c0 .058.031.088.031.147l-.936.5c-.125-.03-.281-.03-.5-.03zm-8.772 28.324s2.341-.118 2.56-1.47c.218-1.354-1.249-1.766-1.249-1.766s.905 1.236.53 1.853c-.343.618-1.841 1.383-1.841 1.383zM7.43 28.824s-.905.294-1.56.852c.655-1.058 1.654-2.264 3.059-3.147 2.81-1.794 5.993-1.647 5.993-1.647s-2.466-.764-5.837.53c-3.59 1.382-4.215 5.294-4.34 6.294 0 .088-.031.176-.031.176-.562.47-1.28 1.177-1.998 2.147.125.324.25.647.406.942 1.186-1.795 2.529-3.471 3.902-4.5 0 0-1.186.44-1.53.676.219-.559.812-1.735 1.936-2.323zM24.507 44.5s-2.342-.97-3.996-.5c-1.624.47-3.403 2.441-4.09 2.853-.687.412-2.872 1.088-2.872 1.088s1.842.118 3.684-1.088c1.873-1.177 3.278-3.177 7.274-2.353zm23.195-12.735c-1.717.44-3.996 1.294-6.431 1.294-.468-.118.687-.588.687-.588-1.062.176-2.872.705-2.872.705-.344.089-1.062-.676-1.592-1.323-.531-.647-.78-1.324-.906-2.47-.125-1.089.125-2.824.125-2.824l-.718 2.176s-.812-1.176-1.061-2.588c-.188-1-.812-2.53-2.123-3.676.156.176 1.654 1.911 1.28 3.411-.718.677-1.499 1.236-2.31 1.47-1.593.413-2.342.442-2.873.236 0 0-.936-.059-1.904-1.088 0 0 .156.706 1.124 1.265-.812.264-2.56.794-5.65 1.44-.937.207.499-1 .499-1-1.062.413-3.528 2.442-3.528 2.442-1.155.794-2.31 1.824-3.34 2.824.031-.03 3.278-1.647 4.214-1.706.344.5.531.676 1.499 1.206 1.28.676 5.838 3.911 7.086 5.205.656.677.875 1.236 1.124 1.765.156.441.375 1.235.312 2.206 0 0 .188-.53.344-1.059.094.088.156.177.28.265 1.062.97 1.843 3.382 1.187 4.147-.687.794-2.903 1.824-5.307 2.412-1.499.353-6.213 1.588-9.771 2.588 5.525 3.353 10.27 4.294 10.27 4.294s19.793-4 25.6-24.059h-.469c-.78.06-2.778.53-4.776 1.03zM20.573 43.382c.031 0 .094-.03.156-.03h.063c2.185-.381 5.15 1.236 5.15 1.236-1.31-1.53-4.151-2.294-4.151-2.294a2.767 2.767 0 0 0-.75-.176c-1.685-.294-5.432-1.206-7.305-2.647-.624-.589-.343-1.795 0-2.765 1.405 3.03 4.277 3.53 4.277 3.53-2.778-1.824-3.34-4.177-3.465-5.148a51.456 51.456 0 0 0-2.747 3.236s-1.967 2.205-4.215 4.117c1.686 2.118 3.559 3.912 5.432 5.412 1.343-.53 2.685-1.177 3.622-1.853 1.31-.97 2.122-2.176 3.933-2.618zm5.37-6.706a599.374 599.374 0 0 0-5.745-3.97c.063 1.088 2.342 2.47 2.342 2.47-1.311-.558-1.78-.264-1.78-.264 2.592.53 3.715 3.44 3.715 3.44.281-.705-.468-1.617-.468-1.617 2.466 0 5.37 4.56 5.807 5.883 0 0 0-3.147-3.871-5.942zm-21.385-7.47c.75-2.706 3.621-4.441 6.462-5 1.561-.324 3.434-.03 4.183.088 0 0-.593-.382-1.717-.588 1.187-.53 2.248-1.177 3.56-2.265 1.623-1.353 3.433-3.441 6.18-3.882.531-.088.968-.147 1.343-.235-.78 1-1.967 1.911-1.967 1.911 1.374-.47 3.34-2.323 3.34-2.323.594-.265 1.093-.618 2.061-1.236.718-.44 1.53-.705 2.404-.852.125 0 .655-.06 1.405 0 0 0-.812-.295-1.717-.324-.156-.176-.75-.882-.78-1.706 0-.97-.781-1.53-.781-1.53s.718 1.089.5 1.883c-.094.324-.5.353-.5.353h-.125c-.937-.059-2.466-.265-4.37-1.088-.282-.118-2.405-1.06-3.622-1.177 0 0 .718.265 1.124.53-1.093-.118-2.06-.089-2.685-.206a26.818 26.818 0 0 1-1.655-.353l-1.123-.235c-.063 0 .03-.177.187-.412.062-.147.094-.294.031-.412 0 0-.187 1.088-1.873.853-1.686-.235-2.185-.294-2.654-.206-.468.118-1.03.382-.936-.03.094-.411.655-.911 1.467-.852.812.059 1-.941 2.466-.736 0 0-1.155-.44-1.966.118 0 0-.25-.382-1-.823-.749-.442-.78-.765-.905-.912-.125-.118-.53-.706-.687-.912-.03-.059-.093-.118-.124-.176C4.964 7.794.999 8.44.999 8.44-.843 18.911.125 27.06 2.497 33.411c.438-.558.875-1.058 1.343-1.529.187-.706.406-1.558.718-2.676zm9.178-22.147c.187.147.187.03.187.03s-.343-.677-.499-.854c-.094-.117-.156-.353-.25-.588-.25.059-.468.147-.718.206.125.176.219.353.344.47.25.177.78.589.936.736z"/>
    <path d="M31.125 44.882c.375-.617-.53-1.853-.53-1.853s1.498.412 1.248 1.765c-.219 1.353-2.56 1.47-2.56 1.47s1.467-.764 1.842-1.382zm-10.552-1.5c.031 0 .094-.03.156-.03h.063c2.185-.381 5.15 1.236 5.15 1.236-1.31-1.53-4.151-2.294-4.151-2.294a2.767 2.767 0 0 0-.75-.176c-1.685-.294-5.432-1.206-7.305-2.647-.624-.589-.343-1.795 0-2.765 1.405 3.03 4.277 3.53 4.277 3.53-2.778-1.824-3.34-4.177-3.465-5.148a51.456 51.456 0 0 0-2.747 3.236s-1.967 2.205-4.215 4.117c1.686 2.118 3.559 3.912 5.432 5.412 1.343-.53 2.685-1.177 3.622-1.853 1.31-.97 2.122-2.176 3.933-2.618zm10.49-18.94c-.188.146-.656.323-.656.323.874-.03 1.873-.294 1.873-.294 0 .147-.312.44-.312.44 1.217-.264 1.436-.911 1.436-.911h-5.557c-4.901 0-7.773 2.353-7.773 2.353s2.403-1.324 5.744-1.735c1.873-.236 5.244-.177 5.244-.177zm21.322 6.352c-.687 0-2.685.441-4.683.941-1.717.441-3.996 1.294-6.431 1.294-.468-.117.687-.588.687-.588-1.062.177-2.872.706-2.872.706-.344.088-1.062-.676-1.592-1.323-.531-.648-.78-1.324-.906-2.471-.125-1.088.125-2.824.125-2.824l-.718 2.177s-.812-1.177-1.061-2.588c-.188-1-.812-2.53-2.123-3.677.156.177 1.654 1.912 1.28 3.412-.718.676-1.499 1.235-2.31 1.47-1.593.412-2.342.442-2.873.236 0 0-.936-.059-1.904-1.088 0 0 .156.705 1.124 1.264-.812.265-2.56.794-5.65 1.441-.937.206.499-1 .499-1-1.062.412-3.528 2.442-3.528 2.442-1.155.794-2.31 1.823-3.34 2.823.031-.03 3.278-1.647 4.214-1.706.344.5.531.677 1.499 1.206 1.28.677 5.838 3.912 7.086 5.206.656.677.875 1.235 1.124 1.765.156.44.375 1.235.312 2.206 0 0 .188-.53.344-1.06.094.09.156.177.28.266 1.062.97 1.843 3.382 1.187 4.147-.687.794-2.903 1.823-5.307 2.411-1.499.353-6.213 1.589-9.771 2.589 5.525 3.353 10.27 4.294 10.27 4.294s19.793-4 25.6-24.06c-.25.119-.406.09-.562.09zm-26.442 5.882a599.374 599.374 0 0 0-5.745-3.97c.063 1.088 2.342 2.47 2.342 2.47-1.311-.558-1.78-.264-1.78-.264 2.592.53 3.715 3.44 3.715 3.44.281-.705-.468-1.617-.468-1.617 2.466 0 5.37 4.56 5.807 5.883 0 0 0-3.147-3.871-5.942zM24.507 44.5s-2.342-.97-3.996-.5c-1.624.47-3.403 2.441-4.09 2.853-.687.412-2.872 1.088-2.872 1.088s1.842.118 3.684-1.088c1.873-1.177 3.278-3.177 7.274-2.353z"/>
  </g>
</svg>
